<svg width="337" height="163" viewBox="0 0 337 163" fill="none" xmlns="http://www.w3.org/2000/svg">
<path d="M136.233 134.572H138.673C139.717 134.572 140.507 134.719 141.043 135.013C141.579 135.306 141.847 135.822 141.847 136.56C141.847 136.857 141.799 137.125 141.703 137.365C141.61 137.605 141.474 137.802 141.295 137.956C141.116 138.11 140.898 138.211 140.641 138.257V138.311C140.902 138.364 141.138 138.458 141.349 138.59C141.56 138.719 141.728 138.909 141.853 139.159C141.981 139.407 142.046 139.736 142.046 140.148C142.046 140.624 141.93 141.032 141.697 141.372C141.465 141.713 141.132 141.974 140.7 142.157C140.271 142.336 139.76 142.425 139.166 142.425H136.233V134.572ZM137.895 137.682H138.861C139.343 137.682 139.677 137.607 139.863 137.457C140.049 137.303 140.142 137.077 140.142 136.78C140.142 136.479 140.031 136.264 139.81 136.135C139.592 136.003 139.245 135.937 138.77 135.937H137.895V137.682ZM137.895 139.004V141.05H138.979C139.479 141.05 139.828 140.953 140.024 140.76C140.221 140.567 140.319 140.307 140.319 139.981C140.319 139.788 140.276 139.618 140.19 139.471C140.105 139.324 139.96 139.21 139.756 139.127C139.556 139.045 139.279 139.004 138.925 139.004H137.895Z" fill="#49BE3F"/>
<path d="M151.386 134.572C152.098 134.572 152.684 134.658 153.145 134.83C153.61 135.002 153.955 135.262 154.18 135.609C154.405 135.956 154.518 136.395 154.518 136.925C154.518 137.283 154.45 137.596 154.314 137.865C154.178 138.134 153.999 138.361 153.778 138.547C153.556 138.733 153.317 138.886 153.059 139.004L155.365 142.425H153.52L151.649 139.412H150.764V142.425H149.102V134.572H151.386ZM151.268 135.937H150.764V138.058H151.3C151.851 138.058 152.244 137.967 152.48 137.784C152.72 137.598 152.839 137.326 152.839 136.968C152.839 136.596 152.711 136.331 152.453 136.173C152.2 136.015 151.805 135.937 151.268 135.937Z" fill="#49BE3F"/>
<path d="M166.357 142.425H161.842V134.572H166.357V135.937H163.504V137.661H166.159V139.025H163.504V141.05H166.357V142.425Z" fill="#49BE3F"/>
<path d="M183.119 134.572L181.124 142.425H179.231L178.169 138.3C178.148 138.221 178.119 138.101 178.084 137.94C178.048 137.779 178.01 137.604 177.971 137.414C177.932 137.22 177.896 137.04 177.864 136.871C177.835 136.699 177.816 136.563 177.805 136.463C177.794 136.563 177.773 136.698 177.74 136.866C177.712 137.034 177.678 137.213 177.639 137.403C177.603 137.593 177.567 137.77 177.531 137.935C177.496 138.1 177.467 138.225 177.446 138.311L176.389 142.425H174.502L172.502 134.572H174.137L175.14 138.859C175.169 138.988 175.201 139.142 175.236 139.321C175.276 139.5 175.313 139.688 175.349 139.885C175.388 140.078 175.422 140.266 175.451 140.449C175.483 140.628 175.506 140.783 175.521 140.916C175.539 140.78 175.562 140.622 175.59 140.443C175.619 140.261 175.649 140.076 175.681 139.89C175.717 139.7 175.753 139.525 175.789 139.364C175.824 139.202 175.857 139.072 175.885 138.971L177.027 134.572H178.598L179.741 138.971C179.766 139.068 179.794 139.199 179.826 139.364C179.862 139.525 179.898 139.7 179.934 139.89C179.969 140.08 180.001 140.266 180.03 140.449C180.062 140.628 180.085 140.783 180.1 140.916C180.125 140.737 180.159 140.52 180.202 140.266C180.248 140.008 180.296 139.752 180.346 139.498C180.4 139.244 180.447 139.031 180.486 138.859L181.483 134.572H183.119Z" fill="#49BE3F"/>
<path d="M189.596 142.425V134.572H191.258V142.425H189.596Z" fill="#49BE3F"/>
<path d="M205.677 142.425H203.564L200.154 136.485H200.105C200.12 136.732 200.132 136.98 200.143 137.231C200.154 137.482 200.164 137.732 200.175 137.983C200.186 138.23 200.197 138.479 200.207 138.73V142.425H198.722V134.572H200.819L204.223 140.454H204.261C204.254 140.21 204.245 139.969 204.234 139.729C204.223 139.489 204.213 139.249 204.202 139.009C204.195 138.769 204.188 138.529 204.181 138.289V134.572H205.677V142.425Z" fill="#49BE3F"/>
<path d="M216.122 138.015H219.232V142.087C218.821 142.223 218.393 142.332 217.95 142.414C217.507 142.493 217.005 142.533 216.443 142.533C215.664 142.533 215.003 142.379 214.459 142.071C213.916 141.763 213.503 141.308 213.221 140.706C212.938 140.105 212.797 139.365 212.797 138.488C212.797 137.664 212.955 136.952 213.269 136.35C213.587 135.749 214.05 135.283 214.658 134.954C215.269 134.624 216.014 134.46 216.894 134.46C217.308 134.46 217.718 134.504 218.122 134.594C218.526 134.683 218.892 134.8 219.221 134.943L218.669 136.275C218.429 136.153 218.156 136.051 217.848 135.969C217.541 135.886 217.219 135.845 216.883 135.845C216.4 135.845 215.98 135.956 215.623 136.178C215.269 136.4 214.994 136.712 214.797 137.113C214.604 137.51 214.508 137.98 214.508 138.52C214.508 139.032 214.577 139.487 214.717 139.885C214.856 140.278 215.076 140.588 215.376 140.814C215.677 141.036 216.068 141.147 216.551 141.147C216.787 141.147 216.985 141.136 217.146 141.115C217.31 141.09 217.464 141.064 217.607 141.039V139.401H216.122V138.015Z" fill="#49BE3F"/>
<path d="M238.267 135.845C237.949 135.845 237.666 135.908 237.42 136.033C237.176 136.155 236.971 136.332 236.803 136.565C236.638 136.798 236.513 137.079 236.428 137.408C236.342 137.738 236.299 138.108 236.299 138.52C236.299 139.075 236.367 139.55 236.503 139.944C236.642 140.334 236.857 140.633 237.146 140.841C237.436 141.045 237.809 141.147 238.267 141.147C238.585 141.147 238.903 141.111 239.221 141.039C239.543 140.968 239.891 140.866 240.267 140.733V142.13C239.92 142.273 239.579 142.375 239.243 142.436C238.907 142.5 238.529 142.533 238.111 142.533C237.303 142.533 236.638 142.366 236.117 142.033C235.598 141.697 235.214 141.227 234.964 140.626C234.714 140.021 234.588 139.315 234.588 138.51C234.588 137.915 234.669 137.371 234.83 136.877C234.991 136.382 235.226 135.955 235.537 135.593C235.848 135.231 236.233 134.952 236.69 134.755C237.148 134.558 237.673 134.46 238.267 134.46C238.656 134.46 239.046 134.51 239.436 134.61C239.829 134.707 240.204 134.841 240.562 135.013L240.025 136.366C239.732 136.227 239.437 136.105 239.141 136.001C238.844 135.897 238.553 135.845 238.267 135.845Z" fill="#49BE3F"/>
<path d="M254.546 138.488C254.546 139.093 254.471 139.645 254.321 140.142C254.17 140.637 253.942 141.063 253.634 141.421C253.33 141.779 252.944 142.055 252.476 142.248C252.008 142.438 251.454 142.533 250.814 142.533C250.174 142.533 249.62 142.438 249.152 142.248C248.683 142.055 248.295 141.779 247.988 141.421C247.684 141.063 247.457 140.635 247.307 140.137C247.157 139.639 247.082 139.086 247.082 138.477C247.082 137.664 247.214 136.957 247.479 136.356C247.747 135.75 248.158 135.281 248.712 134.948C249.266 134.615 249.97 134.449 250.825 134.449C251.675 134.449 252.374 134.615 252.921 134.948C253.472 135.281 253.879 135.75 254.144 136.356C254.412 136.961 254.546 137.672 254.546 138.488ZM248.824 138.488C248.824 139.036 248.892 139.509 249.028 139.906C249.168 140.3 249.384 140.604 249.677 140.819C249.97 141.03 250.349 141.136 250.814 141.136C251.286 141.136 251.668 141.03 251.961 140.819C252.254 140.604 252.467 140.3 252.599 139.906C252.735 139.509 252.803 139.036 252.803 138.488C252.803 137.664 252.649 137.016 252.342 136.544C252.035 136.071 251.529 135.835 250.825 135.835C250.356 135.835 249.974 135.942 249.677 136.157C249.384 136.368 249.168 136.673 249.028 137.07C248.892 137.464 248.824 137.937 248.824 138.488Z" fill="#49BE3F"/>
<path d="M264.98 142.425L263.093 136.264H263.045C263.052 136.411 263.062 136.633 263.077 136.93C263.095 137.224 263.111 137.537 263.125 137.87C263.139 138.203 263.146 138.504 263.146 138.773V142.425H261.661V134.572H263.924L265.779 140.577H265.811L267.779 134.572H270.042V142.425H268.492V138.708C268.492 138.461 268.496 138.176 268.503 137.854C268.514 137.532 268.526 137.226 268.541 136.936C268.555 136.642 268.566 136.422 268.573 136.275H268.524L266.503 142.425H264.98Z" fill="#49BE3F"/>
<path d="M280.015 134.572C281.027 134.572 281.765 134.791 282.23 135.228C282.694 135.661 282.927 136.259 282.927 137.022C282.927 137.365 282.875 137.695 282.771 138.01C282.668 138.322 282.498 138.599 282.262 138.843C282.03 139.086 281.719 139.279 281.329 139.423C280.939 139.562 280.458 139.632 279.887 139.632H279.173V142.425H277.511V134.572H280.015ZM279.929 135.937H279.173V138.268H279.72C280.031 138.268 280.301 138.227 280.53 138.144C280.759 138.062 280.936 137.933 281.061 137.758C281.186 137.582 281.248 137.356 281.248 137.081C281.248 136.694 281.141 136.408 280.927 136.221C280.712 136.032 280.38 135.937 279.929 135.937Z" fill="#49BE3F"/>
<path d="M294.696 142.425L294.128 140.556H291.27L290.702 142.425H288.911L291.678 134.54H293.71L296.487 142.425H294.696ZM293.731 139.159L293.163 137.333C293.127 137.211 293.079 137.056 293.018 136.866C292.961 136.673 292.902 136.477 292.841 136.28C292.784 136.08 292.737 135.906 292.702 135.759C292.666 135.906 292.616 136.089 292.552 136.307C292.491 136.522 292.432 136.726 292.375 136.92C292.317 137.113 292.276 137.251 292.251 137.333L291.688 139.159H293.731Z" fill="#49BE3F"/>
<path d="M309.924 142.425H307.812L304.402 136.485H304.353C304.368 136.732 304.38 136.98 304.391 137.231C304.402 137.482 304.412 137.732 304.423 137.983C304.434 138.23 304.444 138.479 304.455 138.73V142.425H302.97V134.572H305.066L308.471 140.454H308.509C308.502 140.21 308.493 139.969 308.482 139.729C308.471 139.489 308.461 139.249 308.45 139.009C308.443 138.769 308.436 138.529 308.428 138.289V134.572H309.924V142.425Z" fill="#49BE3F"/>
<path d="M319.833 137.806L321.469 134.572H323.26L320.659 139.369V142.425H319.008V139.423L316.407 134.572H318.209L319.833 137.806Z" fill="#49BE3F"/>
<path d="M168.47 124.574C160.256 129.415 149.464 129.415 142.538 126.026C133.197 121.509 131.908 106.987 143.505 100.695C150.108 96.9837 159.934 99.8883 156.712 107.955C155.101 106.826 151.72 107.31 149.303 109.246C146.244 111.828 145.76 116.184 147.21 118.927C148.659 121.186 150.591 122.316 152.846 122.8C156.391 123.768 160.416 122.477 163.316 119.734C168.309 115.054 168.148 106.019 163.316 103.276C162.027 102.631 160.739 102.308 158.484 102.792C158.323 102.953 158.162 102.792 158.484 102.308C158.968 100.855 159.129 99.7261 159.129 98.759C158.806 97.3064 157.356 95.3703 155.746 93.5956C153.652 91.4977 151.397 89.5616 149.786 86.8183C145.599 78.9126 150.591 69.0698 160.256 64.3914C167.182 61.1641 176.846 61.0023 181.838 65.1976C183.933 67.1342 185.221 69.7157 184.738 73.4265C183.449 86.3343 167.343 86.3343 167.987 78.1059C167.987 77.4605 168.309 77.1374 168.954 77.6214C172.819 81.0105 180.068 69.5548 172.819 66.4884C168.148 64.5523 159.129 69.5548 164.121 78.5899C164.766 80.5255 166.698 82.7848 168.47 84.5595C170.725 86.8183 172.98 88.5935 177.006 87.6259C177.491 87.4637 177.651 87.6259 177.329 87.7868C175.879 92.1435 177.651 92.9498 178.94 95.6926C179.422 96.3379 179.745 96.9837 180.068 97.4673C184.094 107.31 177.812 118.927 168.47 124.574" fill="#49BE3F"/>
<path d="M224.526 57.1397C224.338 56.7616 224.526 56.3848 225.092 56.3848C230.177 57.1397 242.606 54.121 246.373 49.7822C246.562 49.404 247.126 49.404 247.126 49.7822L243.172 64.12C249.009 58.2719 256.731 52.9884 261.439 52.0455C266.901 50.725 271.609 51.8572 272.363 56.9504C273.116 61.2897 269.537 67.3267 266.524 72.2325C264.642 75.8168 262.946 78.8347 263.511 80.3449C264.265 82.2306 265.96 82.7971 268.03 81.8534C269.725 80.9106 271.609 79.0244 273.116 75.8168C273.304 75.2508 274.057 75.2508 274.057 75.8168C272.551 86.1931 264.829 92.7967 255.602 92.7967C246.562 92.7967 243.736 86.1931 248.444 77.5146C251.269 72.7981 255.977 64.12 251.835 64.12C249.763 64.12 244.301 69.0245 240.158 75.4387L238.651 80.9106C237.898 84.307 238.087 87.5132 240.911 89.7779C241.288 89.9663 241.288 90.3435 240.723 90.5324C236.58 92.7967 234.884 95.8154 233.755 99.2095C232.624 104.116 231.306 108.832 229.988 113.549C228.858 118.076 229.234 122.604 231.495 125.246C231.871 125.434 231.683 126 231.306 126H204.751C204.376 126 204.563 125.434 205.128 125.246C208.707 122.604 211.532 118.076 212.85 113.549C213.98 108.832 215.298 104.116 216.617 99.3993C217.181 96.0033 217.181 92.7967 214.356 90.5324C213.98 90.3435 213.98 89.9663 214.545 89.7779C218.688 87.5132 220.383 84.307 221.513 80.9106C222.831 75.8168 224.338 70.5343 225.657 65.4401C226.598 61.8558 226.786 59.0254 224.526 57.1397" fill="#49BE3F"/>
<path d="M310.993 58.8375C303.837 58.8375 294.232 72.6098 289.335 89.5887C284.439 106.379 286.322 120.151 293.479 120.151C300.635 120.151 310.24 106.379 315.137 89.5887C320.034 72.6098 318.15 58.8375 310.993 58.8375ZM336.607 90.532C333.405 92.419 331.521 94.6829 330.392 97.3234C330.392 97.7016 330.203 98.0788 330.015 98.2667C322.481 115.058 307.038 127.698 292.537 127.698C278.036 127.698 269.184 115.058 270.314 98.2667V97.3234C270.502 94.6829 270.126 92.419 267.677 90.532C267.301 90.3436 267.489 89.9664 267.866 89.7775C270.691 88.2677 272.386 86.3816 273.515 84.3066C280.296 65.6295 296.869 51.2907 312.312 51.2907C327.755 51.2907 336.795 65.6295 334.158 84.3066C334.158 86.3816 334.911 88.2677 336.795 89.7775C337.171 89.9664 336.983 90.3436 336.607 90.532" fill="#49BE3F"/>
<path d="M226.518 40.5367H218.609C221.81 28.4631 224.446 18.6534 227.649 6.57891C227.649 6.01192 226.706 6.01192 226.518 6.57891C221.433 17.3324 208.061 24.5016 201.658 25.6337C201.281 25.6337 200.904 26.0109 201.47 26.3881C203.918 28.0859 203.918 31.1037 202.789 34.8769L201.281 40.5367H192.995C192.984 40.5367 192.967 40.544 192.955 40.545C193.088 42.6869 191.533 45.1808 188.55 47.8942H199.398L190.923 79.7784C189.793 83.7409 188.099 87.3248 183.578 89.7779C183.014 89.9663 182.825 90.3435 183.201 90.5319C186.215 92.9841 186.215 96.1917 185.462 99.777L182.636 110.341C180 119.963 181.319 128.264 191.677 128.264C200.904 128.264 208.626 121.85 210.133 111.284C210.321 110.718 209.38 110.718 209.192 111.284C204.671 121.094 197.139 119.209 199.963 110.341L202.977 98.8332C204.107 95.6261 205.802 92.7967 209.756 90.5319C210.321 90.3435 210.321 89.9663 209.944 89.7779C206.366 87.136 207.12 83.3637 208.25 78.8347C210.887 69.2133 214.088 57.5165 216.537 47.8942H221.433C221.81 47.8942 222.562 47.5184 222.94 46.9514L226.706 41.2921C227.083 40.9148 227.083 40.5367 226.518 40.5367" fill="#49BE3F"/>
<path d="M191.521 39.1726C188.96 32.5453 166.54 32.6301 136.638 38.404C136.686 38.4269 136.728 38.4516 136.776 38.475C157.963 34.5813 173.586 34.6179 175.397 39.3069C177.941 45.8935 152.287 59.1556 118.096 68.9291C83.9051 78.7036 54.1255 81.2878 51.5815 74.7017C49.0375 68.1156 74.6922 54.853 108.883 45.0795C110.192 44.705 111.492 44.3452 112.788 43.9923C112.778 43.9441 112.768 43.8965 112.762 43.8483C109.629 44.6656 106.458 45.5305 103.257 46.4458C57.9612 59.3944 24.038 77.1314 27.4881 86.0634C30.938 94.9954 70.4548 91.7388 115.751 78.7902C161.047 65.8421 194.97 48.1042 191.521 39.1726" fill="#49BE3F"/>
<path d="M72.9366 91.252C68.7092 104.658 64.2617 118.05 58.0284 130.906C51.4369 144.3 42.7739 158.26 25.8244 156.563C8.49766 154.865 6.99074 132.414 15.8427 123.926C21.8696 118.076 29.9671 119.774 28.0838 127.321C27.3306 129.773 25.8244 131.848 24.1291 132.414C23.1874 132.792 23.1874 133.924 24.3175 134.112C35.994 135.056 43.9037 126.754 45.2219 118.643C46.3516 111.851 44.2807 107.322 40.5136 104.493C37.6887 102.228 33.7341 101.285 29.5905 101.475C18.6678 101.852 9.81616 108.643 4.73142 118.076C-7.13345 140.339 3.60125 166.563 33.7341 162.6C45.9755 161.091 55.9571 154.488 63.4898 148.262C74.7897 138.64 81.9472 125.623 87.5967 111.661C90.8943 103.475 93.8648 94.9601 96.9235 86.4494C88.461 88.4446 80.3906 90.052 72.9366 91.252" fill="#49BE3F"/>
<path d="M143.342 89.778C139.764 86.9476 139.764 83.1744 140.706 78.8351C142.041 73.8643 143.443 68.6551 144.864 63.3633L121.996 70.9175L119.424 80.7222C117.918 84.3065 115.846 87.3248 111.514 89.778C110.949 89.9663 110.761 90.5319 111.138 90.7212C114.339 93.173 114.716 96.1913 114.151 99.7765L106.806 127.509C105.299 132.981 101.909 138.451 97.3898 141.47C96.6362 142.037 96.8252 142.602 97.3898 142.602H129.029C129.594 142.602 129.971 142.037 129.406 141.47C126.769 138.451 126.204 132.981 127.711 127.509C130.159 118.076 132.042 110.908 134.68 101.475C135.998 97.3239 138.069 93.3623 143.154 90.7212C143.719 90.3436 143.907 89.9663 143.342 89.778" fill="#49BE3F"/>
<path d="M153.324 2.61595C143.154 -2.66569 127.899 0.729815 118.859 6.76729C113.774 10.1632 109.255 14.6904 105.3 19.5962C97.7664 28.652 91.928 39.9711 87.0316 51.48C82.8885 60.9129 79.6865 70.5343 76.485 80.1552L76.4214 80.3546C83.5849 79.5552 91.9115 78.1187 100.901 76.0864L103.416 68.0816C104.923 63.3651 106.618 58.4598 108.125 54.8759C111.891 45.0653 116.223 35.0667 120.743 26.7645C124.133 20.54 129.783 11.8615 136.751 8.08826C140.706 5.82444 149.934 4.50346 151.441 10.3516C152.194 13.5592 149.746 18.0869 146.544 20.3511C142.401 23.5578 133.737 24.8788 131.854 18.4636C131.854 17.7087 130.913 17.5208 130.536 18.4636C128.088 23.7462 129.783 28.8404 132.985 31.6707L132.419 33.7457L126.77 53.3656L125.263 58.6482V58.4598L123.346 65.7701C131.737 63.2189 139.522 60.4802 146.38 57.7159C148.678 49.152 150.99 40.5115 153.135 32.4252C165.189 24.8788 166.507 9.22041 153.324 2.61595" fill="#49BE3F"/>
</svg>
