<svg width="290" height="241" viewBox="0 0 290 241" fill="none" xmlns="http://www.w3.org/2000/svg">
<path d="M210.557 64.4717C213.001 71.6615 214.327 79.3678 214.327 87.3838L214.321 88.3037C213.829 127.187 182.155 158.556 143.155 158.556L142.235 158.55C128.202 158.372 115.148 154.131 104.194 146.951C105.018 146.701 105.826 146.425 106.617 146.128C117.22 152.737 129.741 156.556 143.155 156.556C181.357 156.556 212.327 125.586 212.327 87.3838C212.327 79.7534 211.089 72.412 208.807 65.5479C209.291 65.2593 209.763 64.9743 210.219 64.6885C210.333 64.6169 210.445 64.5433 210.557 64.4717ZM83.579 122.552C86.897 128.161 90.9854 133.26 95.6971 137.705C94.8187 137.817 93.8995 137.855 92.9344 137.812C89.1992 134.093 85.8745 129.961 83.035 125.49C83.1175 124.468 83.3034 123.478 83.579 122.552ZM77.3338 108.708C76.9866 109.2 76.6533 109.704 76.3368 110.222L75.951 110.869C76.38 110.124 76.8428 109.403 77.3338 108.708ZM144.075 16.2188C152.663 16.3275 160.885 17.9575 168.483 20.8516C167.505 21.1786 166.549 21.5459 165.624 21.9443C158.579 19.526 151.02 18.2129 143.155 18.2129C104.953 18.2132 73.9844 49.1819 73.9842 87.3838C73.9843 93.5256 74.7857 99.4802 76.2879 105.149C75.7532 105.792 75.2454 106.46 74.7655 107.148C73.0363 101.154 72.0728 94.8351 71.9901 88.3037L71.9842 87.3838C71.9844 48.0773 103.849 16.2132 143.155 16.2129L144.075 16.2188ZM205.339 52.8018C205.264 53.414 204.944 54.0814 204.398 54.793L204.267 54.9541V54.9531C204.808 54.2831 205.156 53.6528 205.291 53.0674L205.339 52.8018ZM203.764 50.3584L204.048 50.5215C203.954 50.4636 203.855 50.4069 203.752 50.3525C203.756 50.3545 203.76 50.3564 203.764 50.3584ZM203.644 50.2998C203.68 50.3178 203.717 50.3342 203.752 50.3525C203.717 50.3342 203.68 50.3178 203.644 50.2998ZM203.404 50.1846C203.487 50.2215 203.567 50.261 203.644 50.2998C203.567 50.261 203.487 50.2215 203.404 50.1846ZM203.265 50.127C203.312 50.1466 203.359 50.1644 203.404 50.1846C203.359 50.1644 203.312 50.1466 203.265 50.127ZM203.021 50.0273C203.105 50.0592 203.186 50.0935 203.265 50.127C203.186 50.0935 203.105 50.0592 203.021 50.0273ZM202.893 49.9814C202.936 49.997 202.979 50.0114 203.021 50.0273C202.979 50.0114 202.936 49.997 202.893 49.9814ZM202.603 49.8799C202.703 49.9121 202.799 49.9473 202.893 49.9814C202.799 49.9473 202.703 49.9121 202.603 49.8799ZM202.462 49.8369C202.509 49.8516 202.557 49.8648 202.603 49.8799C202.557 49.8648 202.509 49.8516 202.462 49.8369ZM202.16 49.748C202.263 49.7766 202.363 49.8066 202.462 49.8369C202.363 49.8066 202.263 49.7766 202.16 49.748ZM202.005 49.707C202.057 49.7208 202.109 49.7339 202.16 49.748C202.109 49.7339 202.057 49.7207 202.005 49.707ZM201.664 49.6221C201.78 49.6493 201.894 49.6779 202.005 49.707C201.894 49.6779 201.78 49.6493 201.664 49.6221ZM201.555 49.5967C201.591 49.605 201.628 49.6136 201.664 49.6221C201.628 49.6136 201.591 49.605 201.555 49.5967ZM201.185 49.5176C201.311 49.5427 201.434 49.5695 201.555 49.5967C201.434 49.5695 201.311 49.5428 201.185 49.5176ZM201.03 49.4873C201.082 49.4972 201.134 49.5073 201.185 49.5176C201.134 49.5074 201.083 49.4981 201.031 49.4883L201.03 49.4873ZM197.162 41.0293C198.255 42.3016 199.304 43.6128 200.307 44.9609C199.52 44.9931 198.714 45.0354 197.89 45.0879C197.324 44.3565 196.745 43.6364 196.15 42.9287C196.53 42.3116 196.868 41.6773 197.162 41.0293ZM186.644 33.1279L186.536 33.3896C186.591 33.2617 186.64 33.1324 186.688 33.0039C186.673 33.0449 186.66 33.087 186.644 33.1279ZM186.797 32.6982C186.763 32.8003 186.726 32.9019 186.688 33.0039C186.726 32.9019 186.763 32.8003 186.797 32.6982ZM186.933 32.2344C186.992 32.008 187.038 31.783 187.071 31.5605L187.092 31.3906H187.093C187.06 31.668 187.007 31.9502 186.933 32.2344ZM182.026 29.6826C183.731 29.7498 184.025 30.2748 184.11 30.5635C184.144 30.7422 184.14 31.0837 184.009 31.5605C183.129 30.9156 182.233 30.2912 181.322 29.6875C181.559 29.6757 181.795 29.6735 182.026 29.6826ZM186.865 32.4795C186.844 32.5524 186.821 32.6253 186.797 32.6982C186.821 32.6253 186.844 32.5524 186.865 32.4795Z" fill="#49BE3F"/>
<path d="M145.612 87.5564C143.288 94.0101 141.032 100.467 138.527 106.675C134.235 117.262 128.798 127.133 120.214 134.429C114.492 139.151 106.909 144.158 97.6099 145.303C74.7199 148.308 66.5656 128.421 75.5786 111.539C79.4412 104.386 86.1652 99.2371 94.4624 98.951C97.6101 98.8071 100.614 99.5217 102.76 101.239C105.622 103.385 107.195 106.819 106.336 111.97C105.335 118.12 99.3264 124.416 90.4566 123.7C89.5984 123.557 89.5987 122.698 90.314 122.412C91.6017 121.983 92.7458 120.409 93.3179 118.55C94.7484 112.827 88.5973 111.54 84.0191 115.975C77.2949 122.413 78.44 139.437 91.6021 140.724C104.477 142.012 111.058 131.426 116.065 121.268C120.8 111.52 124.179 101.364 127.39 91.198C133.053 90.2881 139.183 89.0694 145.612 87.5564Z" fill="#49BE3F"/>
<path fill-rule="evenodd" clip-rule="evenodd" d="M162.275 27.1316C169.142 22.5534 180.73 19.9783 188.456 23.9832C198.47 28.9914 197.469 40.866 188.313 46.5887C188.087 47.4373 187.858 48.2935 187.627 49.157C204.226 46.892 215.883 47.5996 217.472 51.7049C219.53 57.0234 204.081 66.4594 180.69 75.0213C180.071 77.3207 179.463 79.5823 178.871 81.782C178.155 85.0725 178.155 87.9336 180.874 90.0799C181.302 90.2227 181.159 90.5093 180.73 90.7957C176.867 92.7985 175.294 95.803 174.292 98.951C172.289 106.104 170.858 111.54 168.999 118.693C167.855 122.842 168.283 126.99 170.287 129.279C170.715 129.709 170.43 130.137 170.001 130.137H145.965C145.537 130.137 145.393 129.709 145.965 129.279C149.398 126.99 151.974 122.842 153.119 118.693L158.699 97.6629C159.128 94.9442 158.841 92.6549 156.41 90.7957C156.124 90.6522 156.266 90.2228 156.695 90.0799C159.985 88.2196 161.56 85.9308 162.705 83.2127L163.352 80.7449C162.216 81.0827 161.07 81.4179 159.914 81.7478C125.505 91.5669 95.4867 94.0367 92.8657 87.2635C90.5684 81.3263 110.084 70.2589 138.112 61.0037C141.828 52.2882 146.259 43.7182 151.974 36.8602C154.979 33.14 158.412 29.7069 162.275 27.1316ZM137.813 61.6912C120.818 68.0029 109.686 74.8146 111.167 78.6473C112.247 81.4377 119.786 82.0557 130.758 80.7664C132.898 74.3657 135.089 67.9753 137.813 61.6912ZM187.026 29.8494C185.881 25.4149 178.87 26.4169 175.866 28.1336C170.573 30.9949 166.281 37.5757 163.706 42.2957C161.555 46.2394 159.46 50.6879 157.492 55.2898C157.542 55.2767 157.593 55.2639 157.643 55.2508C157.648 55.2873 157.656 55.3237 157.663 55.3602C157.587 55.3808 157.511 55.401 157.435 55.4217C156.281 58.124 155.172 60.8783 154.121 63.6131C152.976 66.3308 151.688 70.0511 150.543 73.6277L149.34 77.45C153.319 76.5383 157.463 75.478 161.695 74.2703C187.667 66.859 207.156 56.8023 205.224 51.8074C204.208 49.1822 197.473 48.4807 187.541 49.4812C186.134 54.7591 184.655 60.2844 183.181 65.7674C177.972 67.8636 172.058 69.9402 165.683 71.8748L167.139 66.3309V66.4744L168.284 62.4686L172.576 47.5896L173.005 46.0164C170.573 43.8702 169.286 40.0075 171.145 36.0018C171.431 35.2868 172.146 35.4293 172.146 36.0018C173.577 40.8661 180.159 39.864 183.306 37.4324C185.738 35.7153 187.598 32.2816 187.026 29.8494Z" fill="#49BE3F"/>
<path d="M269.748 193.26C269.282 193.26 268.886 193.098 268.561 192.773C268.236 192.448 268.073 192.056 268.073 191.596V189.922C268.073 189.463 268.236 189.071 268.561 188.746C268.893 188.421 269.289 188.258 269.748 188.258H271.412C271.878 188.258 272.274 188.421 272.599 188.746C272.924 189.071 273.086 189.463 273.086 189.922V191.596C273.086 192.056 272.924 192.448 272.599 192.773C272.267 193.098 271.871 193.26 271.412 193.26H269.748ZM269.748 184.92C269.282 184.92 268.886 184.757 268.561 184.432C268.236 184.1 268.073 183.705 268.073 183.245V181.581C268.073 181.115 268.236 180.719 268.561 180.394C268.893 180.069 269.289 179.907 269.748 179.907H271.412C271.878 179.907 272.274 180.069 272.599 180.394C272.924 180.726 273.086 181.122 273.086 181.581V183.245C273.086 183.712 272.924 184.107 272.599 184.432C272.267 184.757 271.871 184.92 271.412 184.92H269.748ZM259.733 193.26V173.23C259.733 172.771 259.895 172.379 260.22 172.054C260.545 171.722 260.937 171.556 261.397 171.556H271.412C271.878 171.556 272.274 171.722 272.599 172.054C272.924 172.379 273.086 172.771 273.086 173.23V174.905C273.086 175.364 272.924 175.756 272.599 176.081C272.267 176.406 271.871 176.569 271.412 176.569H265.572C265.339 176.569 265.141 176.65 264.979 176.812C264.816 176.975 264.735 177.173 264.735 177.406V193.26H259.733Z" fill="#49BE3F"/>
<path d="M246.369 184.92C245.902 184.92 245.507 184.757 245.182 184.432C244.857 184.1 244.694 183.705 244.694 183.245V181.581C244.694 181.115 244.857 180.719 245.182 180.394C245.514 180.069 245.91 179.907 246.369 179.907H248.033C248.499 179.907 248.895 180.069 249.22 180.394C249.545 180.726 249.707 181.122 249.707 181.581V183.245C249.707 183.712 249.545 184.107 249.22 184.432C248.888 184.757 248.492 184.92 248.033 184.92H246.369ZM254.709 193.26C254.25 193.26 253.858 193.098 253.533 192.773C253.208 192.448 253.045 192.056 253.045 191.596V179.907H258.058V191.596C258.058 192.056 257.892 192.448 257.56 192.773C257.235 193.098 256.843 193.26 256.384 193.26H254.709ZM238.018 193.26C237.558 193.26 237.166 193.098 236.841 192.773C236.516 192.448 236.354 192.056 236.354 191.596V171.556H241.356V191.596C241.356 192.056 241.193 192.448 240.868 192.773C240.543 193.098 240.151 193.26 239.692 193.26H238.018Z" fill="#49BE3F"/>
<path d="M216.313 193.26C215.854 193.26 215.461 193.098 215.136 192.773C214.811 192.448 214.649 192.056 214.649 191.596V189.922C214.649 189.463 214.811 189.071 215.136 188.746C215.461 188.421 215.854 188.258 216.313 188.258H234.679V193.26H216.313ZM214.649 184.92V173.23C214.649 172.771 214.811 172.379 215.136 172.054C215.461 171.722 215.854 171.556 216.313 171.556H233.005C233.471 171.556 233.867 171.722 234.192 172.054C234.517 172.379 234.679 172.771 234.679 173.23V183.245C234.679 183.712 234.517 184.107 234.192 184.432C233.867 184.757 233.471 184.92 233.005 184.92H231.341C230.882 184.92 230.489 184.757 230.164 184.432C229.832 184.1 229.666 183.705 229.666 183.245V177.406C229.666 177.173 229.585 176.975 229.423 176.812C229.26 176.65 229.066 176.569 228.84 176.569H220.488C220.255 176.569 220.057 176.65 219.895 176.812C219.732 176.975 219.651 177.173 219.651 177.406V184.92H214.649Z" fill="#49BE3F"/>
<path d="M194.608 184.92C194.149 184.92 193.757 184.757 193.432 184.432C193.107 184.1 192.944 183.705 192.944 183.245V181.581C192.944 181.115 193.107 180.719 193.432 180.394C193.757 180.069 194.149 179.907 194.608 179.907H196.283C196.742 179.907 197.134 180.069 197.459 180.394C197.784 180.726 197.946 181.122 197.946 181.581V183.245C197.946 183.712 197.784 184.107 197.459 184.432C197.134 184.757 196.742 184.92 196.283 184.92H194.608ZM199.621 193.26C199.155 193.26 198.759 193.098 198.434 192.773C198.109 192.448 197.946 192.056 197.946 191.596V189.922C197.946 189.463 198.109 189.071 198.434 188.746C198.759 188.421 199.155 188.258 199.621 188.258H207.135C207.361 188.258 207.555 188.177 207.718 188.014C207.88 187.852 207.962 187.654 207.962 187.421V185.757C207.962 185.524 207.88 185.326 207.718 185.163C207.555 185.001 207.361 184.92 207.135 184.92H202.959V179.907H207.135C207.361 179.907 207.555 179.826 207.718 179.663C207.88 179.501 207.962 179.303 207.962 179.07V177.406C207.962 177.173 207.88 176.975 207.718 176.812C207.555 176.65 207.361 176.569 207.135 176.569H192.944V171.556H211.3C211.766 171.556 212.162 171.722 212.487 172.054C212.812 172.379 212.974 172.771 212.974 173.23V191.596C212.974 192.056 212.812 192.448 212.487 192.773C212.162 193.098 211.766 193.26 211.3 193.26H199.621Z" fill="#49BE3F"/>
<path d="M187.942 189.922C187.476 189.922 187.08 189.759 186.755 189.434C186.43 189.109 186.267 188.717 186.267 188.258V186.584C186.267 186.124 186.43 185.732 186.755 185.407C187.087 185.082 187.483 184.92 187.942 184.92H189.606C190.072 184.92 190.468 185.082 190.793 185.407C191.118 185.732 191.28 186.124 191.28 186.584V188.258C191.28 188.717 191.118 189.109 190.793 189.434C190.468 189.759 190.072 189.922 189.606 189.922H187.942ZM174.588 193.26V173.23C174.588 172.771 174.751 172.379 175.076 172.054C175.401 171.722 175.793 171.556 176.252 171.556H189.606C190.072 171.556 190.468 171.722 190.793 172.054C191.118 172.379 191.28 172.771 191.28 173.23V178.243C191.28 178.702 191.118 179.094 190.793 179.419C190.468 179.744 190.072 179.907 189.606 179.907H187.942C187.476 179.907 187.08 179.744 186.755 179.419C186.43 179.094 186.267 178.702 186.267 178.243V177.406C186.267 177.173 186.186 176.975 186.024 176.812C185.861 176.65 185.667 176.569 185.441 176.569H180.428C180.195 176.569 179.997 176.65 179.834 176.812C179.672 176.975 179.591 177.173 179.591 177.406V193.26H174.588Z" fill="#49BE3F"/>
<path d="M169.576 193.26C169.109 193.26 168.714 193.098 168.389 192.773C168.064 192.448 167.901 192.056 167.901 191.596V189.922C167.901 189.463 168.064 189.071 168.389 188.746C168.721 188.421 169.116 188.258 169.576 188.258H171.24C171.706 188.258 172.101 188.421 172.427 188.746C172.752 189.071 172.914 189.463 172.914 189.922V191.596C172.914 192.056 172.752 192.448 172.427 192.773C172.094 193.098 171.699 193.26 171.24 193.26H169.576ZM169.576 184.92C169.109 184.92 168.714 184.757 168.389 184.432C168.064 184.1 167.901 183.705 167.901 183.245V181.581C167.901 181.115 168.064 180.719 168.389 180.394C168.721 180.069 169.116 179.907 169.576 179.907H171.24C171.706 179.907 172.101 180.069 172.427 180.394C172.752 180.726 172.914 181.122 172.914 181.581V183.245C172.914 183.712 172.752 184.107 172.427 184.432C172.094 184.757 171.699 184.92 171.24 184.92H169.576ZM159.561 193.26V173.23C159.561 172.771 159.723 172.379 160.048 172.054C160.373 171.722 160.765 171.556 161.224 171.556H171.24C171.706 171.556 172.101 171.722 172.427 172.054C172.752 172.379 172.914 172.771 172.914 173.23V174.905C172.914 175.364 172.752 175.756 172.427 176.081C172.094 176.406 171.699 176.569 171.24 176.569H165.4C165.167 176.569 164.969 176.65 164.807 176.812C164.644 176.975 164.563 177.173 164.563 177.406V193.26H159.561Z" fill="#49BE3F"/>
<path d="M154.548 184.92C154.088 184.92 153.696 184.757 153.371 184.432C153.046 184.1 152.884 183.705 152.884 183.245V181.581C152.884 181.115 153.046 180.719 153.371 180.394C153.696 180.069 154.088 179.907 154.548 179.907H156.222C156.681 179.907 157.074 180.069 157.399 180.394C157.724 180.726 157.886 181.122 157.886 181.581V183.245C157.886 183.712 157.724 184.107 157.399 184.432C157.074 184.757 156.681 184.92 156.222 184.92H154.548ZM154.548 199.937C154.088 199.937 153.696 199.771 153.371 199.439C153.046 199.114 152.884 198.722 152.884 198.263V194.087C152.884 193.861 152.803 193.667 152.64 193.504C152.478 193.342 152.28 193.26 152.047 193.26H139.53V188.258L147.871 171.556H152.884L144.533 188.258H156.222C156.681 188.258 157.074 188.421 157.399 188.746C157.724 189.071 157.886 189.463 157.886 189.922V198.263C157.886 198.722 157.724 199.114 157.399 199.439C157.074 199.771 156.681 199.937 156.222 199.937H154.548Z" fill="#49BE3F"/>
<path d="M134.528 189.922C134.062 189.922 133.666 189.759 133.341 189.434C133.016 189.109 132.854 188.717 132.854 188.258V186.584C132.854 186.124 133.016 185.732 133.341 185.407C133.673 185.082 134.069 184.92 134.528 184.92H136.192C136.658 184.92 137.054 185.082 137.379 185.407C137.704 185.732 137.866 186.124 137.866 186.584V188.258C137.866 188.717 137.704 189.109 137.379 189.434C137.054 189.759 136.658 189.922 136.192 189.922H134.528ZM121.175 193.26V173.23C121.175 172.771 121.337 172.379 121.662 172.054C121.987 171.722 122.379 171.556 122.838 171.556H136.192C136.658 171.556 137.054 171.722 137.379 172.054C137.704 172.379 137.866 172.771 137.866 173.23V178.243C137.866 178.702 137.704 179.094 137.379 179.419C137.054 179.744 136.658 179.907 136.192 179.907H134.528C134.062 179.907 133.666 179.744 133.341 179.419C133.016 179.094 132.854 178.702 132.854 178.243V177.406C132.854 177.173 132.772 176.975 132.61 176.812C132.447 176.65 132.253 176.569 132.027 176.569H127.014C126.781 176.569 126.583 176.65 126.421 176.812C126.258 176.975 126.177 177.173 126.177 177.406V193.26H121.175Z" fill="#49BE3F"/>
<path d="M107.81 193.26C107.351 193.26 106.959 193.098 106.634 192.773C106.309 192.448 106.147 192.056 106.147 191.596V179.907H111.149V191.596C111.149 192.056 110.986 192.448 110.661 192.773C110.336 193.098 109.944 193.26 109.485 193.26H107.81ZM116.162 193.26C115.695 193.26 115.3 193.098 114.975 192.773C114.65 192.448 114.487 192.056 114.487 191.596V177.406C114.487 177.173 114.406 176.975 114.243 176.812C114.081 176.65 113.883 176.569 113.65 176.569H106.147V171.556H117.826C118.292 171.556 118.688 171.722 119.013 172.054C119.338 172.379 119.5 172.771 119.5 173.23V191.596C119.5 192.056 119.338 192.448 119.013 192.773C118.681 193.098 118.285 193.26 117.826 193.26H116.162Z" fill="#49BE3F"/>
<path d="M101.134 193.26C100.667 193.26 100.272 193.098 99.9468 192.773C99.6218 192.448 99.4593 192.056 99.4593 191.596V189.922C99.4593 189.463 99.6218 189.071 99.9468 188.746C100.279 188.421 100.674 188.258 101.134 188.258H102.798C103.264 188.258 103.66 188.421 103.985 188.746C104.31 189.071 104.472 189.463 104.472 189.922V191.596C104.472 192.056 104.31 192.448 103.985 192.773C103.653 193.098 103.257 193.26 102.798 193.26H101.134ZM101.134 184.92C100.667 184.92 100.272 184.757 99.9468 184.432C99.6218 184.1 99.4593 183.705 99.4593 183.245V181.581C99.4593 181.115 99.6218 180.719 99.9468 180.394C100.279 180.069 100.674 179.907 101.134 179.907H102.798C103.264 179.907 103.66 180.069 103.985 180.394C104.31 180.726 104.472 181.122 104.472 181.581V183.245C104.472 183.712 104.31 184.107 103.985 184.432C103.653 184.757 103.257 184.92 102.798 184.92H101.134ZM91.1186 193.26V173.23C91.1186 172.771 91.2811 172.379 91.6061 172.054C91.9311 171.722 92.3233 171.556 92.7825 171.556H102.798C103.264 171.556 103.66 171.722 103.985 172.054C104.31 172.379 104.472 172.771 104.472 173.23V174.905C104.472 175.364 104.31 175.756 103.985 176.081C103.653 176.406 103.257 176.569 102.798 176.569H96.9581C96.725 176.569 96.5271 176.65 96.3646 176.812C96.2021 176.975 96.1209 177.173 96.1209 177.406V193.26H91.1186Z" fill="#49BE3F"/>
<path d="M86.1164 189.922C85.6501 189.922 85.2544 189.759 84.9294 189.434C84.6044 189.109 84.4419 188.717 84.4419 188.258V186.584C84.4419 186.124 84.6044 185.732 84.9294 185.407C85.2615 185.082 85.6571 184.92 86.1164 184.92H87.7803C88.2466 184.92 88.6422 185.082 88.9672 185.407C89.2922 185.732 89.4547 186.124 89.4547 186.584V188.258C89.4547 188.717 89.2922 189.109 88.9672 189.434C88.6422 189.759 88.2466 189.922 87.7803 189.922H86.1164ZM72.7629 193.26V173.23C72.7629 172.771 72.9254 172.379 73.2504 172.054C73.5754 171.722 73.9675 171.556 74.4268 171.556H87.7803C88.2466 171.556 88.6422 171.722 88.9672 172.054C89.2922 172.379 89.4547 172.771 89.4547 173.23V178.243C89.4547 178.702 89.2922 179.094 88.9672 179.419C88.6422 179.744 88.2466 179.907 87.7803 179.907H86.1164C85.6501 179.907 85.2544 179.744 84.9294 179.419C84.6044 179.094 84.4419 178.702 84.4419 178.243V177.406C84.4419 177.173 84.3606 176.975 84.1981 176.812C84.0356 176.65 83.8413 176.569 83.6152 176.569H78.6024C78.3692 176.569 78.1714 176.65 78.0089 176.812C77.8464 176.975 77.7652 177.173 77.7652 177.406V193.26H72.7629Z" fill="#49BE3F"/>
<path d="M56.071 184.92C55.6118 184.92 55.2197 184.757 54.8947 184.432C54.5697 184.1 54.4072 183.705 54.4072 183.245V181.581C54.4072 181.115 54.5697 180.719 54.8947 180.394C55.2197 180.069 55.6118 179.907 56.071 179.907H57.7455C58.2048 179.907 58.5969 180.069 58.9219 180.394C59.2469 180.726 59.4094 181.122 59.4094 181.581V183.245C59.4094 183.712 59.2469 184.107 58.9219 184.432C58.5969 184.757 58.2048 184.92 57.7455 184.92H56.071ZM61.0839 193.26C60.6176 193.26 60.2219 193.098 59.8969 192.773C59.5719 192.448 59.4094 192.056 59.4094 191.596V189.922C59.4094 189.463 59.5719 189.071 59.8969 188.746C60.2219 188.421 60.6176 188.258 61.0839 188.258H65.2595C65.4856 188.258 65.6799 188.177 65.8424 188.014C66.0049 187.852 66.0862 187.654 66.0862 187.421V177.406C66.0862 177.173 66.0049 176.975 65.8424 176.812C65.6799 176.65 65.4856 176.569 65.2595 176.569H59.4094V171.556H69.4245C69.8908 171.556 70.2865 171.722 70.6115 172.054C70.9365 172.379 71.099 172.771 71.099 173.23V191.596C71.099 192.056 70.9365 192.448 70.6115 192.773C70.2865 193.098 69.8908 193.26 69.4245 193.26H61.0839Z" fill="#49BE3F"/>
<path d="M34.3663 193.26C33.9071 193.26 33.515 193.098 33.19 192.773C32.865 192.448 32.7025 192.056 32.7025 191.596V189.922C32.7025 189.463 32.865 189.071 33.19 188.746C33.515 188.421 33.9071 188.258 34.3663 188.258H52.7327V193.26H34.3663ZM32.7025 184.92V173.23C32.7025 172.771 32.865 172.379 33.19 172.054C33.515 171.722 33.9071 171.556 34.3663 171.556H51.0582C51.5245 171.556 51.9202 171.722 52.2452 172.054C52.5702 172.379 52.7327 172.771 52.7327 173.23V183.245C52.7327 183.712 52.5702 184.107 52.2452 184.432C51.9202 184.757 51.5245 184.92 51.0582 184.92H49.3943C48.9351 184.92 48.5429 184.757 48.2179 184.432C47.8859 184.1 47.7198 183.705 47.7198 183.245V177.406C47.7198 177.173 47.6386 176.975 47.4761 176.812C47.3136 176.65 47.1193 176.569 46.8932 176.569H38.542C38.3088 176.569 38.111 176.65 37.9485 176.812C37.786 176.975 37.7047 177.173 37.7047 177.406V184.92H32.7025Z" fill="#49BE3F"/>
<path d="M17.6639 193.26C17.2046 193.26 16.8125 193.098 16.4875 192.773C16.1625 192.448 16 192.056 16 191.596V189.922C16 189.463 16.1625 189.071 16.4875 188.746C16.8125 188.421 17.2046 188.258 17.6639 188.258H31.0174V193.26H17.6639ZM22.6767 184.92C22.2104 184.92 21.8148 184.757 21.4898 184.432C21.1648 184.1 21.0023 183.705 21.0023 183.245V181.581C21.0023 181.115 21.1648 180.719 21.4898 180.394C21.8148 180.069 22.2104 179.907 22.6767 179.907H24.3406C24.8069 179.907 25.2026 180.069 25.5276 180.394C25.8526 180.726 26.0151 181.122 26.0151 181.581V183.245C26.0151 183.712 25.8526 184.107 25.5276 184.432C25.1955 184.757 24.7999 184.92 24.3406 184.92H22.6767ZM16 176.569V171.556H29.3535C29.8127 171.556 30.2049 171.722 30.5299 172.054C30.8549 172.379 31.0174 172.771 31.0174 173.23V174.905C31.0174 175.364 30.8549 175.756 30.5299 176.081C30.2049 176.406 29.8127 176.569 29.3535 176.569H16Z" fill="#49BE3F"/>
<path d="M256.37 218.651V214.338H272.196C272.598 214.338 272.939 214.478 273.219 214.758C273.5 215.038 273.64 215.376 273.64 215.772V217.216C273.64 217.612 273.5 217.95 273.219 218.23C272.939 218.511 272.598 218.651 272.196 218.651H256.37ZM268.605 207.137C268.8 207.137 268.967 207.067 269.108 206.927C269.248 206.787 269.318 206.617 269.318 206.416V204.981C269.318 204.78 269.248 204.609 269.108 204.469C268.967 204.329 268.8 204.259 268.605 204.259H261.405C261.204 204.259 261.033 204.329 260.893 204.469C260.753 204.609 260.683 204.78 260.683 204.981V206.416C260.683 206.617 260.753 206.787 260.893 206.927C261.033 207.067 261.204 207.137 261.405 207.137H268.605ZM257.805 211.459C257.409 211.459 257.071 211.319 256.79 211.039C256.51 210.753 256.37 210.412 256.37 210.016V199.937H272.196C272.598 199.937 272.939 200.08 273.219 200.367C273.5 200.647 273.64 200.985 273.64 201.381V210.016C273.64 210.418 273.5 210.759 273.219 211.039C272.939 211.319 272.598 211.459 272.196 211.459H257.805Z" fill="#49BE3F"/>
<path d="M252.057 215.772C251.655 215.772 251.314 215.632 251.034 215.352C250.754 215.072 250.613 214.734 250.613 214.338V212.894C250.613 212.498 250.754 212.16 251.034 211.88C251.32 211.6 251.661 211.459 252.057 211.459H253.492C253.894 211.459 254.235 211.6 254.515 211.88C254.795 212.16 254.935 212.498 254.935 212.894V214.338C254.935 214.734 254.795 215.072 254.515 215.352C254.235 215.632 253.894 215.772 253.492 215.772H252.057ZM240.544 218.651V201.381C240.544 200.985 240.684 200.647 240.964 200.367C241.244 200.08 241.583 199.937 241.978 199.937H253.492C253.894 199.937 254.235 200.08 254.515 200.367C254.795 200.647 254.935 200.985 254.935 201.381V205.703C254.935 206.099 254.795 206.437 254.515 206.717C254.235 206.997 253.894 207.137 253.492 207.137H252.057C251.655 207.137 251.314 206.997 251.034 206.717C250.754 206.437 250.613 206.099 250.613 205.703V204.981C250.613 204.78 250.543 204.609 250.403 204.469C250.263 204.329 250.096 204.259 249.901 204.259H245.579C245.378 204.259 245.207 204.329 245.067 204.469C244.927 204.609 244.857 204.78 244.857 204.981V218.651H240.544Z" fill="#49BE3F"/>
<path d="M236.231 218.651C235.829 218.651 235.488 218.511 235.208 218.23C234.927 217.95 234.787 217.612 234.787 217.216V212.181C234.787 211.98 234.717 211.81 234.577 211.67C234.437 211.53 234.27 211.459 234.075 211.459H224.718V207.137H237.666C238.068 207.137 238.409 207.278 238.689 207.558C238.969 207.844 239.109 208.185 239.109 208.581V217.216C239.109 217.612 238.969 217.95 238.689 218.23C238.409 218.511 238.068 218.651 237.666 218.651H236.231ZM226.152 204.259C225.756 204.259 225.418 204.119 225.138 203.839C224.858 203.559 224.718 203.221 224.718 202.825V201.381C224.718 200.985 224.858 200.647 225.138 200.367C225.418 200.08 225.756 199.937 226.152 199.937H227.596C227.992 199.937 228.33 200.08 228.61 200.367C228.891 200.647 229.031 200.985 229.031 201.381V202.825C229.031 203.221 228.891 203.559 228.61 203.839C228.33 204.119 227.992 204.259 227.596 204.259H226.152ZM236.231 204.259C235.829 204.259 235.488 204.119 235.208 203.839C234.927 203.559 234.787 203.221 234.787 202.825V201.381C234.787 200.985 234.927 200.647 235.208 200.367C235.494 200.08 235.835 199.937 236.231 199.937H237.666C238.068 199.937 238.409 200.08 238.689 200.367C238.969 200.647 239.109 200.985 239.109 201.381V202.825C239.109 203.221 238.969 203.559 238.689 203.839C238.409 204.119 238.068 204.259 237.666 204.259H236.231Z" fill="#49BE3F"/>
<path d="M207.439 211.459C207.043 211.459 206.705 211.319 206.425 211.039C206.144 210.753 206.004 210.412 206.004 210.016V208.581C206.004 208.179 206.144 207.838 206.425 207.558C206.705 207.278 207.043 207.137 207.439 207.137H208.883C209.279 207.137 209.617 207.278 209.897 207.558C210.177 207.844 210.317 208.185 210.317 208.581V210.016C210.317 210.418 210.177 210.759 209.897 211.039C209.617 211.319 209.279 211.459 208.883 211.459H207.439ZM211.761 218.651C211.359 218.651 211.018 218.511 210.738 218.23C210.457 217.95 210.317 217.612 210.317 217.216V215.772C210.317 215.376 210.457 215.038 210.738 214.758C211.018 214.478 211.359 214.338 211.761 214.338H218.239C218.434 214.338 218.602 214.268 218.742 214.128C218.882 213.987 218.952 213.817 218.952 213.616V212.181C218.952 211.98 218.882 211.81 218.742 211.67C218.602 211.53 218.434 211.459 218.239 211.459H214.639V207.137H218.239C218.434 207.137 218.602 207.067 218.742 206.927C218.882 206.787 218.952 206.617 218.952 206.416V204.981C218.952 204.78 218.882 204.609 218.742 204.469C218.602 204.329 218.434 204.259 218.239 204.259H206.004V199.937H221.83C222.232 199.937 222.574 200.08 222.854 200.367C223.134 200.647 223.274 200.985 223.274 201.381V217.216C223.274 217.612 223.134 217.95 222.854 218.23C222.574 218.511 222.232 218.651 221.83 218.651H211.761Z" fill="#49BE3F"/>
<path d="M201.682 211.459C201.286 211.459 200.948 211.319 200.668 211.039C200.388 210.753 200.248 210.412 200.248 210.016V208.581C200.248 208.179 200.388 207.838 200.668 207.558C200.948 207.278 201.286 207.137 201.682 207.137H203.126C203.522 207.137 203.86 207.278 204.14 207.558C204.42 207.844 204.561 208.185 204.561 208.581V210.016C204.561 210.418 204.42 210.759 204.14 211.039C203.86 211.319 203.522 211.459 203.126 211.459H201.682ZM201.682 224.407C201.286 224.407 200.948 224.264 200.668 223.978C200.388 223.698 200.248 223.359 200.248 222.964V219.363C200.248 219.168 200.178 219.001 200.038 218.861C199.897 218.721 199.727 218.651 199.526 218.651H188.735V214.338L195.926 199.937H200.248L193.047 214.338H203.126C203.522 214.338 203.86 214.478 204.14 214.758C204.42 215.038 204.561 215.376 204.561 215.772V222.964C204.561 223.359 204.42 223.698 204.14 223.978C203.86 224.264 203.522 224.407 203.126 224.407H201.682Z" fill="#49BE3F"/>
<path d="M184.413 218.651C184.01 218.651 183.669 218.511 183.389 218.23C183.109 217.95 182.969 217.612 182.969 217.216V215.772C182.969 215.376 183.109 215.038 183.389 214.758C183.675 214.478 184.017 214.338 184.413 214.338H185.847C186.249 214.338 186.59 214.478 186.87 214.758C187.151 215.038 187.291 215.376 187.291 215.772V217.216C187.291 217.612 187.151 217.95 186.87 218.23C186.584 218.511 186.243 218.651 185.847 218.651H184.413ZM184.413 211.459C184.01 211.459 183.669 211.319 183.389 211.039C183.109 210.753 182.969 210.412 182.969 210.016V208.581C182.969 208.179 183.109 207.838 183.389 207.558C183.675 207.278 184.017 207.137 184.413 207.137H185.847C186.249 207.137 186.59 207.278 186.87 207.558C187.151 207.844 187.291 208.185 187.291 208.581V210.016C187.291 210.418 187.151 210.759 186.87 211.039C186.584 211.319 186.243 211.459 185.847 211.459H184.413ZM175.778 218.651V201.381C175.778 200.985 175.918 200.647 176.198 200.367C176.478 200.08 176.816 199.937 177.212 199.937H185.847C186.249 199.937 186.59 200.08 186.87 200.367C187.151 200.647 187.291 200.985 187.291 201.381V202.825C187.291 203.221 187.151 203.559 186.87 203.839C186.584 204.119 186.243 204.259 185.847 204.259H180.812C180.611 204.259 180.441 204.329 180.301 204.469C180.161 204.609 180.09 204.78 180.09 204.981V218.651H175.778Z" fill="#49BE3F"/>
<path d="M171.465 215.772C171.063 215.772 170.722 215.632 170.441 215.352C170.161 215.072 170.021 214.734 170.021 214.338V212.894C170.021 212.498 170.161 212.16 170.441 211.88C170.728 211.6 171.069 211.459 171.465 211.459H172.899C173.301 211.459 173.642 211.6 173.923 211.88C174.203 212.16 174.343 212.498 174.343 212.894V214.338C174.343 214.734 174.203 215.072 173.923 215.352C173.642 215.632 173.301 215.772 172.899 215.772H171.465ZM159.952 218.651V201.381C159.952 200.985 160.092 200.647 160.372 200.367C160.652 200.08 160.99 199.937 161.386 199.937H172.899C173.301 199.937 173.642 200.08 173.923 200.367C174.203 200.647 174.343 200.985 174.343 201.381V205.703C174.343 206.099 174.203 206.437 173.923 206.717C173.642 206.997 173.301 207.137 172.899 207.137H171.465C171.063 207.137 170.722 206.997 170.441 206.717C170.161 206.437 170.021 206.099 170.021 205.703V204.981C170.021 204.78 169.951 204.609 169.811 204.469C169.671 204.329 169.503 204.259 169.308 204.259H164.986C164.785 204.259 164.615 204.329 164.475 204.469C164.334 204.609 164.264 204.78 164.264 204.981V218.651H159.952Z" fill="#49BE3F"/>
<path d="M148.429 211.459C148.027 211.459 147.686 211.319 147.406 211.039C147.126 210.753 146.985 210.412 146.985 210.016V208.581C146.985 208.179 147.126 207.838 147.406 207.558C147.692 207.278 148.033 207.137 148.429 207.137H149.864C150.266 207.137 150.607 207.278 150.887 207.558C151.167 207.844 151.307 208.185 151.307 208.581V210.016C151.307 210.418 151.167 210.759 150.887 211.039C150.601 211.319 150.26 211.459 149.864 211.459H148.429ZM155.62 218.651C155.224 218.651 154.886 218.511 154.606 218.23C154.326 217.95 154.186 217.612 154.186 217.216V207.137H158.508V217.216C158.508 217.612 158.365 217.95 158.078 218.23C157.798 218.511 157.46 218.651 157.064 218.651H155.62ZM141.229 218.651C140.833 218.651 140.495 218.511 140.215 218.23C139.934 217.95 139.794 217.612 139.794 217.216V199.937H144.107V217.216C144.107 217.612 143.967 217.95 143.687 218.23C143.407 218.511 143.069 218.651 142.673 218.651H141.229Z" fill="#49BE3F"/>
<path d="M122.515 218.651C122.119 218.651 121.781 218.511 121.501 218.23C121.221 217.95 121.081 217.612 121.081 217.216V215.772C121.081 215.376 121.221 215.038 121.501 214.758C121.781 214.478 122.119 214.338 122.515 214.338H138.351V218.651H122.515ZM121.081 211.459V201.381C121.081 200.985 121.221 200.647 121.501 200.367C121.781 200.08 122.119 199.937 122.515 199.937H136.907C137.309 199.937 137.65 200.08 137.93 200.367C138.21 200.647 138.351 200.985 138.351 201.381V210.016C138.351 210.418 138.21 210.759 137.93 211.039C137.65 211.319 137.309 211.459 136.907 211.459H135.472C135.076 211.459 134.738 211.319 134.458 211.039C134.172 210.753 134.029 210.412 134.029 210.016V204.981C134.029 204.78 133.959 204.609 133.818 204.469C133.678 204.329 133.511 204.259 133.316 204.259H126.116C125.914 204.259 125.744 204.329 125.604 204.469C125.464 204.609 125.394 204.78 125.394 204.981V211.459H121.081Z" fill="#49BE3F"/>
<path d="M116.759 218.651C116.357 218.651 116.016 218.511 115.735 218.23C115.455 217.95 115.315 217.612 115.315 217.216V215.772C115.315 215.376 115.455 215.038 115.735 214.758C116.022 214.478 116.363 214.338 116.759 214.338H118.193C118.595 214.338 118.937 214.478 119.217 214.758C119.497 215.038 119.637 215.376 119.637 215.772V217.216C119.637 217.612 119.497 217.95 119.217 218.23C118.93 218.511 118.589 218.651 118.193 218.651H116.759ZM116.759 211.459C116.357 211.459 116.016 211.319 115.735 211.039C115.455 210.753 115.315 210.412 115.315 210.016V208.581C115.315 208.179 115.455 207.838 115.735 207.558C116.022 207.278 116.363 207.137 116.759 207.137H118.193C118.595 207.137 118.937 207.278 119.217 207.558C119.497 207.844 119.637 208.185 119.637 208.581V210.016C119.637 210.418 119.497 210.759 119.217 211.039C118.93 211.319 118.589 211.459 118.193 211.459H116.759ZM108.124 218.651V201.381C108.124 200.985 108.264 200.647 108.544 200.367C108.824 200.08 109.162 199.937 109.558 199.937H118.193C118.595 199.937 118.937 200.08 119.217 200.367C119.497 200.647 119.637 200.985 119.637 201.381V202.825C119.637 203.221 119.497 203.559 119.217 203.839C118.93 204.119 118.589 204.259 118.193 204.259H113.159C112.958 204.259 112.787 204.329 112.647 204.469C112.507 204.609 112.437 204.78 112.437 204.981V218.651H108.124Z" fill="#49BE3F"/>
<path d="M90.8449 211.459C90.449 211.459 90.1109 211.319 89.8307 211.039C89.5505 210.753 89.4103 210.412 89.4103 210.016V208.581C89.4103 208.179 89.5505 207.838 89.8307 207.558C90.1109 207.278 90.449 207.137 90.8449 207.137H92.2886C92.6846 207.137 93.0227 207.278 93.3029 207.558C93.5831 207.844 93.7232 208.185 93.7232 208.581V210.016C93.7232 210.418 93.5831 210.759 93.3029 211.039C93.0227 211.319 92.6846 211.459 92.2886 211.459H90.8449ZM95.1669 218.651C94.7649 218.651 94.4238 218.511 94.1436 218.23C93.8633 217.95 93.7232 217.612 93.7232 217.216V215.772C93.7232 215.376 93.8633 215.038 94.1436 214.758C94.4238 214.478 94.7649 214.338 95.1669 214.338H101.645C101.84 214.338 102.008 214.268 102.148 214.128C102.288 213.987 102.358 213.817 102.358 213.616V212.181C102.358 211.98 102.288 211.81 102.148 211.67C102.008 211.53 101.84 211.459 101.645 211.459H98.0452V207.137H101.645C101.84 207.137 102.008 207.067 102.148 206.927C102.288 206.787 102.358 206.617 102.358 206.416V204.981C102.358 204.78 102.288 204.609 102.148 204.469C102.008 204.329 101.84 204.259 101.645 204.259H89.4103V199.937H105.236C105.638 199.937 105.98 200.08 106.26 200.367C106.54 200.647 106.68 200.985 106.68 201.381V217.216C106.68 217.612 106.54 217.95 106.26 218.23C105.98 218.511 105.638 218.651 105.236 218.651H95.1669Z" fill="#49BE3F"/>
<path d="M70.6968 218.651V214.338H86.5229C86.925 214.338 87.2661 214.478 87.5463 214.758C87.8265 215.038 87.9666 215.376 87.9666 215.772V217.216C87.9666 217.612 87.8265 217.95 87.5463 218.23C87.2661 218.511 86.925 218.651 86.5229 218.651H70.6968ZM82.9319 207.137C83.1268 207.137 83.2943 207.067 83.4344 206.927C83.5746 206.787 83.6446 206.617 83.6446 206.416V204.981C83.6446 204.78 83.5746 204.609 83.4344 204.469C83.2943 204.329 83.1268 204.259 82.9319 204.259H75.7316C75.5305 204.259 75.36 204.329 75.2199 204.469C75.0798 204.609 75.0097 204.78 75.0097 204.981V206.416C75.0097 206.617 75.0798 206.787 75.2199 206.927C75.36 207.067 75.5305 207.137 75.7316 207.137H82.9319ZM72.1314 211.459C71.7355 211.459 71.3974 211.319 71.1172 211.039C70.8369 210.753 70.6968 210.412 70.6968 210.016V199.937H86.5229C86.925 199.937 87.2661 200.08 87.5463 200.367C87.8265 200.647 87.9666 200.985 87.9666 201.381V210.016C87.9666 210.418 87.8265 210.759 87.5463 211.039C87.2661 211.319 86.925 211.459 86.5229 211.459H72.1314Z" fill="#49BE3F"/>
<path d="M66.3839 218.651C65.9819 218.651 65.6408 218.511 65.3606 218.23C65.0803 217.95 64.9402 217.612 64.9402 217.216V212.181C64.9402 211.98 64.8702 211.81 64.7301 211.67C64.59 211.53 64.4224 211.459 64.2275 211.459H54.8708V207.137H67.8185C68.2206 207.137 68.5617 207.278 68.8419 207.558C69.1221 207.844 69.2622 208.185 69.2622 208.581V217.216C69.2622 217.612 69.1221 217.95 68.8419 218.23C68.5617 218.511 68.2206 218.651 67.8185 218.651H66.3839ZM56.3053 204.259C55.9094 204.259 55.5713 204.119 55.2911 203.839C55.0109 203.559 54.8708 203.221 54.8708 202.825V201.381C54.8708 200.985 55.0109 200.647 55.2911 200.367C55.5713 200.08 55.9094 199.937 56.3053 199.937H57.7491C58.145 199.937 58.4831 200.08 58.7633 200.367C59.0435 200.647 59.1836 200.985 59.1836 201.381V202.825C59.1836 203.221 59.0435 203.559 58.7633 203.839C58.4831 204.119 58.145 204.259 57.7491 204.259H56.3053ZM66.3839 204.259C65.9819 204.259 65.6408 204.119 65.3606 203.839C65.0803 203.559 64.9402 203.221 64.9402 202.825V201.381C64.9402 200.985 65.0803 200.647 65.3606 200.367C65.6469 200.08 65.988 199.937 66.3839 199.937H67.8185C68.2206 199.937 68.5617 200.08 68.8419 200.367C69.1221 200.647 69.2622 200.985 69.2622 201.381V202.825C69.2622 203.221 69.1221 203.559 68.8419 203.839C68.5617 204.119 68.2206 204.259 67.8185 204.259H66.3839Z" fill="#49BE3F"/>
<path d="M37.5918 211.459C37.1959 211.459 36.8578 211.319 36.5776 211.039C36.2973 210.753 36.1572 210.412 36.1572 210.016V208.581C36.1572 208.179 36.2973 207.838 36.5776 207.558C36.8578 207.278 37.1959 207.137 37.5918 207.137H39.0355C39.4315 207.137 39.7696 207.278 40.0498 207.558C40.33 207.844 40.4701 208.185 40.4701 208.581V210.016C40.4701 210.418 40.33 210.759 40.0498 211.039C39.7696 211.319 39.4315 211.459 39.0355 211.459H37.5918ZM41.9138 218.651C41.5118 218.651 41.1707 218.511 40.8904 218.23C40.6102 217.95 40.4701 217.612 40.4701 217.216V215.772C40.4701 215.376 40.6102 215.038 40.8904 214.758C41.1707 214.478 41.5118 214.338 41.9138 214.338H48.3923C48.5872 214.338 48.7547 214.268 48.8949 214.128C49.035 213.987 49.105 213.817 49.105 213.616V212.181C49.105 211.98 49.035 211.81 48.8949 211.67C48.7547 211.53 48.5872 211.459 48.3923 211.459H44.7921V207.137H48.3923C48.5872 207.137 48.7547 207.067 48.8949 206.927C49.035 206.787 49.105 206.617 49.105 206.416V204.981C49.105 204.78 49.035 204.609 48.8949 204.469C48.7547 204.329 48.5872 204.259 48.3923 204.259H36.1572V199.937H51.9833C52.3854 199.937 52.7265 200.08 53.0067 200.367C53.2869 200.647 53.427 200.985 53.427 201.381V217.216C53.427 217.612 53.2869 217.95 53.0067 218.23C52.7265 218.511 52.3854 218.651 51.9833 218.651H41.9138Z" fill="#49BE3F"/>
<path d="M24.6349 211.459C24.2329 211.459 23.8917 211.319 23.6115 211.039C23.3313 210.753 23.1912 210.412 23.1912 210.016V208.581C23.1912 208.179 23.3313 207.838 23.6115 207.558C23.8978 207.278 24.2389 207.137 24.6349 207.137H26.0695C26.4715 207.137 26.8127 207.278 27.0929 207.558C27.3731 207.844 27.5132 208.185 27.5132 208.581V210.016C27.5132 210.418 27.3731 210.759 27.0929 211.039C26.8066 211.319 26.4654 211.459 26.0695 211.459H24.6349ZM29.6696 214.338C29.8707 214.338 30.0412 214.268 30.1813 214.128C30.3214 213.987 30.3915 213.817 30.3915 213.616V204.981C30.3915 204.78 30.3214 204.609 30.1813 204.469C30.0412 204.329 29.8707 204.259 29.6696 204.259H21.0347C20.8337 204.259 20.6631 204.329 20.523 204.469C20.3829 204.609 20.3129 204.78 20.3129 204.981V213.616C20.3129 213.817 20.3829 213.987 20.523 214.128C20.6631 214.268 20.8337 214.338 21.0347 214.338H29.6696ZM17.4346 218.651C17.0386 218.651 16.7005 218.511 16.4203 218.23C16.1401 217.95 16 217.612 16 217.216V199.937H33.2698C33.6658 199.937 34.0038 200.08 34.2841 200.367C34.5704 200.647 34.7135 200.985 34.7135 201.381V217.216C34.7135 217.612 34.5704 217.95 34.2841 218.23C34.0038 218.511 33.6658 218.651 33.2698 218.651H17.4346Z" fill="#49BE3F"/>
</svg>
